<svg xmlns="http://www.w3.org/2000/svg" viewBox="0 0 512 512" role="img" aria-labelledby="title desc">
  <title id="title">NoteChord</title>
  <desc id="desc">Logo de NoteChord con una nota musical y una hoja de cifrado</desc>
  <defs>
    <linearGradient id="background" x1="0" y1="0" x2="1" y2="1"><stop offset="0" stop-color="#172b58"/><stop offset="1" stop-color="#050914"/></linearGradient>
    <linearGradient id="paper" x1="0" y1="0" x2="1" y2="1"><stop offset="0" stop-color="#ffffff"/><stop offset="1" stop-color="#9bb9ff"/></linearGradient>
    <linearGradient id="accent" x1="0" y1="0" x2="1" y2="1"><stop offset="0" stop-color="#dce8ff"/><stop offset="1" stop-color="#527ef1"/></linearGradient>
  </defs>
  <rect width="512" height="512" rx="112" fill="url(#background)"/>
  <path d="M297 91c24-8 48 10 48 36v120c0 12-8 23-20 27l-33 11V160l-71 22v137c0 31-25 56-56 56s-56-25-56-56 25-56 56-56c10 0 20 3 28 8V158c0-15 10-29 24-34z" fill="url(#paper)"/>
  <path d="M297 91v58c0 18 15 33 33 33h15v-55c0-26-24-44-48-36z" fill="#6e8ff0"/>
  <path d="M200 175l109-34M200 205l109-34M200 235l109-34" stroke="#7b8dbd" stroke-width="11" stroke-linecap="round" opacity=".9"/>
  <circle cx="164" cy="322" r="38" fill="url(#accent)"/><circle cx="316" cy="284" r="38" fill="url(#accent)"/>
  <text x="256" y="442" fill="#fff" font-family="Avenir Next, Helvetica Neue, sans-serif" font-size="47" font-weight="700" text-anchor="middle">NoteChord</text>
</svg>
